<svg width="598.4250122070313px" height="124.4224853515625px" xmlns="http://www.w3.org/2000/svg" viewBox="-49.212506103515636 12.78875732421875 598.4250122070313 124.4224853515625" style="background: rgba(0, 0, 0, 0);" preserveAspectRatio="xMidYMid"><defs><linearGradient id="editing-outline-gradient" x1="-0.41354545764260087" x2="1.4135454576426008" y1="0.09326335692419985" y2="0.9067366430758002"><stop offset="0" stop-color="#ee4208"></stop><stop offset="1" stop-color="#4139ff"></stop></linearGradient><filter id="editing-outline" x="-100%" y="-100%" width="300%" height="300%"><feMorphology in="SourceGraphic" operator="dilate" radius="1" result="outline"></feMorphology><feComposite operator="out" in="outline" in2="SourceAlpha"></feComposite></filter></defs><g filter="url(#editing-outline)"><g transform="translate(36.49500423669815, 104.43999862670898)"><path d="M0.90 0L0.90 0Q3.01 0 4.58-1.73L4.58-1.73L4.58-1.73Q6.14-3.46 6.14-7.30L6.14-7.30L6.14-41.54L1.86-41.66L1.86-44.80L9.79-44.80L9.79-7.55L9.79-7.55Q9.79-2.82 7.65-0.22L7.65-0.22L7.65-0.22Q5.50 2.37 1.73 2.37L1.73 2.37L0.90 0ZM41.41-11.78L41.41-11.78Q41.41-6.40 38.46-2.88L38.46-2.88L38.46-2.88Q35.52 0.64 29.57 0.64L29.57 0.64L29.57 0.64Q23.62 0.64 20.58-2.91L20.58-2.91L20.58-2.91Q17.54-6.46 17.54-11.78L17.54-11.78L17.54-20.22L17.54-20.22Q17.54-26.30 20.64-29.54L20.64-29.54L20.64-29.54Q23.74-32.77 29.57-32.77L29.57-32.77L29.57-32.77Q35.14-32.77 38.27-29.41L38.27-29.41L38.27-29.41Q41.41-26.05 41.41-20.22L41.41-20.22L41.41-11.78ZM37.82-20.22L37.82-20.22Q37.82-25.02 35.62-27.26L35.62-27.26L35.62-27.26Q33.41-29.50 29.57-29.50L29.57-29.50L29.57-29.50Q25.60-29.50 23.36-27.26L23.36-27.26L23.36-27.26Q21.12-25.02 21.12-20.22L21.12-20.22L21.12-11.14L21.12-11.14Q21.12-7.30 23.39-4.93L23.39-4.93L23.39-4.93Q25.66-2.56 29.57-2.56L29.57-2.56L29.57-2.56Q33.54-2.56 35.68-4.90L35.68-4.90L35.68-4.90Q37.82-7.23 37.82-11.14L37.82-11.14L37.82-20.22ZM72.13-10.05L72.13-10.05Q72.13-6.78 70.78-4.54L70.78-4.54L70.78-4.54Q69.44-2.30 67.14-1.15L67.14-1.15L67.14-1.15Q65.09-0.13 63.01 0.32L63.01 0.32L63.01 0.32Q60.93 0.77 58.56 0.77L58.56 0.77L58.56 0.77Q56.19 0.77 52.03 0.32L52.03 0.32L48.51 0L48.51-44.80L52.10-44.80L52.10-30.34L52.10-30.34Q53.63-31.42 55.84-32L55.84-32L55.84-32Q58.05-32.58 60.42-32.58L60.42-32.58L60.42-32.58Q64.06-32.58 66.69-31.36L66.69-31.36L66.69-31.36Q72.13-28.86 72.13-22.14L72.13-22.14L72.13-10.05ZM68.61-21.95L68.61-21.95Q68.61-25.86 66.34-27.62L66.34-27.62L66.34-27.62Q64.06-29.38 60.48-29.38L60.48-29.38L60.48-29.38Q58.30-29.38 56.06-28.77L56.06-28.77L56.06-28.77Q53.82-28.16 52.10-27.20L52.10-27.20L52.10-3.07L52.10-3.07Q55.87-2.50 58.30-2.50L58.30-2.50L58.30-2.50Q68.61-2.50 68.61-9.98L68.61-9.98L68.61-21.95ZM97.02-22.14L97.02-22.14Q97.02-28.86 102.46-31.36L102.46-31.36L102.46-31.36Q105.09-32.58 108.74-32.58L108.74-32.58L108.74-32.58Q111.10-32.58 113.31-32L113.31-32L113.31-32Q115.52-31.42 117.06-30.34L117.06-30.34L117.06-44.80L120.64-44.80L120.64 0L117.12 0.32L117.12 0.32Q112.96 0.77 110.59 0.77L110.59 0.77L110.59 0.77Q108.22 0.77 106.14 0.32L106.14 0.32L106.14 0.32Q104.06-0.13 102.02-1.15L102.02-1.15L102.02-1.15Q99.71-2.30 98.37-4.54L98.37-4.54L98.37-4.54Q97.02-6.78 97.02-10.05L97.02-10.05L97.02-22.14ZM117.06-27.20L117.06-27.20Q115.33-28.16 113.09-28.77L113.09-28.77L113.09-28.77Q110.85-29.38 108.67-29.38L108.67-29.38L108.67-29.38Q105.09-29.38 102.82-27.62L102.82-27.62L102.82-27.62Q100.54-25.86 100.54-21.95L100.54-21.95L100.54-9.98L100.54-9.98Q100.54-2.50 110.85-2.50L110.85-2.50L110.85-2.50Q113.28-2.50 117.06-3.07L117.06-3.07L117.06-27.20ZM146.43-2.24L146.43-2.24Q144.13-0.77 141.18 0L141.18 0L141.18 0Q138.24 0.77 135.30 0.77L135.30 0.77L135.30 0.77Q130.56 0.77 127.78-1.57L127.78-1.57L127.78-1.57Q124.99-3.90 124.99-8.58L124.99-8.58L124.99-21.70L124.99-21.70Q124.99-26.88 128.22-29.76L128.22-29.76L128.22-29.76Q131.46-32.64 136.77-32.64L136.77-32.64L136.77-32.64Q142.08-32.64 145.06-29.79L145.06-29.79L145.06-29.79Q148.03-26.94 148.03-21.89L148.03-21.89L148.03-13.57L128.58-12.48L128.58-8.58L128.58-8.58Q128.58-5.50 130.56-3.97L130.56-3.97L130.56-3.97Q132.54-2.43 135.74-2.43L135.74-2.43L135.74-2.43Q140.22-2.43 145.02-4.99L145.02-4.99L146.43-2.24ZM144.45-22.34L144.45-22.34Q144.45-26.30 141.95-27.94L141.95-27.94L141.95-27.94Q139.46-29.57 136.70-29.57L136.70-29.57L136.70-29.57Q133.18-29.57 130.88-27.65L130.88-27.65L130.88-27.65Q128.58-25.73 128.58-21.63L128.58-21.63L128.58-16L144.45-16.77L144.45-22.34ZM156.22-8.13L156.22-8.13Q156.61-5.25 159.10-3.81L159.10-3.81L159.10-3.81Q161.60-2.37 164.67-2.37L164.67-2.37L164.67-2.37Q167.55-2.37 169.92-3.68L169.92-3.68L169.92-3.68Q172.29-4.99 172.29-7.94L172.29-7.94L172.29-7.94Q172.29-9.86 171.17-11.10L171.17-11.10L171.17-11.10Q170.05-12.35 168.38-13.12L168.38-13.12L168.38-13.12Q166.72-13.89 163.90-14.78L163.90-14.78L163.90-14.78Q160.77-15.81 158.78-16.70L158.78-16.70L158.78-16.70Q156.80-17.60 155.33-19.23L155.33-19.23L155.33-19.23Q153.86-20.86 153.60-23.36L153.60-23.36L153.54-24.13L153.54-24.13Q153.54-26.24 154.72-28.26L154.72-28.26L154.72-28.26Q155.90-30.27 158.37-31.55L158.37-31.55L158.37-31.55Q160.83-32.83 164.54-32.83L164.54-32.83L164.54-32.83Q166.59-32.83 168.16-32.42L168.16-32.42L168.16-32.42Q169.73-32 170.62-31.55L170.62-31.55L170.62-31.55Q171.52-31.10 171.71-30.98L171.71-30.98L170.50-28.03L170.50-28.03Q170.30-28.16 169.57-28.54L169.57-28.54L169.57-28.54Q168.83-28.93 167.49-29.31L167.49-29.31L167.49-29.31Q166.14-29.70 164.54-29.70L164.54-29.70L164.54-29.70Q161.47-29.70 159.30-28.26L159.30-28.26L159.30-28.26Q157.12-26.82 157.12-24.26L157.12-24.26L157.12-24.26Q157.12-21.82 159.10-20.54L159.10-20.54L159.10-20.54Q161.09-19.26 165.18-17.98L165.18-17.98L165.18-17.98Q168.64-16.83 170.75-15.81L170.75-15.81L170.75-15.81Q172.86-14.78 174.37-12.90L174.37-12.90L174.37-12.90Q175.87-11.01 175.87-8L175.87-8L175.87-8Q175.87-4.16 173.02-1.60L173.02-1.60L173.02-1.60Q170.18 0.96 164.67 0.96L164.67 0.96L164.67 0.96Q161.02 0.96 158.37-0.29L158.37-0.29L158.37-0.29Q155.71-1.54 154.34-3.58L154.34-3.58L154.34-3.58Q152.96-5.63 152.83-8.13L152.83-8.13L156.22-8.13ZM201.02-0.38L201.02-0.38Q197.06 0.64 193.34 0.64L193.34 0.64L193.34 0.64Q189.89 0.64 187.58-0.13L187.58-0.13L187.58-0.13Q183.81-1.41 182.11-4.06L182.11-4.06L182.11-4.06Q180.42-6.72 180.42-11.52L180.42-11.52L180.42-19.71L180.42-19.71Q180.42-26.05 183.74-29.34L183.74-29.34L183.74-29.34Q187.07-32.64 192.32-32.64L192.32-32.64L192.32-32.64Q196.48-32.64 200.90-30.59L200.90-30.59L199.87-27.97L199.87-27.97Q196.22-29.44 192.83-29.44L192.83-29.44L192.83-29.44Q188.86-29.44 186.43-27.17L186.43-27.17L186.43-27.17Q184-24.90 184-20.10L184-20.10L184-10.82L184-10.82Q184-6.40 186.66-4.42L186.66-4.42L186.66-4.42Q189.31-2.43 193.73-2.43L193.73-2.43L193.73-2.43Q196.61-2.43 200.26-3.26L200.26-3.26L201.02-0.38ZM206.53 0L206.53-32.06L210.11-32.06L209.92-29.82L209.92-29.82Q212.93-32.64 217.79-32.64L217.79-32.64L217.79-32.64Q219.52-32.64 222.53-32.06L222.53-32.06L221.57-28.80L221.57-28.80Q219.52-29.44 217.28-29.44L217.28-29.44L217.28-29.44Q214.34-29.44 212.22-28.35L212.22-28.35L212.22-28.35Q210.11-27.26 210.11-25.09L210.11-25.09L210.11 0L206.53 0ZM231.10-41.15L231.10-41.15Q230.27-41.15 229.60-41.82L229.60-41.82L229.60-41.82Q228.93-42.50 228.93-43.33L228.93-43.33L228.93-43.33Q228.93-44.16 229.57-44.80L229.57-44.80L229.57-44.80Q230.21-45.44 231.10-45.44L231.10-45.44L231.10-45.44Q232-45.44 232.61-44.83L232.61-44.83L232.61-44.83Q233.22-44.22 233.22-43.33L233.22-43.33L233.22-43.33Q233.22-42.43 232.58-41.79L232.58-41.79L232.58-41.79Q231.94-41.15 231.10-41.15L231.10-41.15ZM229.25 0L229.25-32.06L232.83-32.06L232.83 0L229.25 0ZM243.33 13.44L243.33-32.06L246.91-32.06L246.59-28.80L246.59-28.80Q248.32-30.66 250.66-31.62L250.66-31.62L250.66-31.62Q252.99-32.58 255.30-32.58L255.30-32.58L255.30-32.58Q261.25-32.58 264.35-29.12L264.35-29.12L264.35-29.12Q267.46-25.66 267.46-20.16L267.46-20.16L267.46-11.26L267.46-11.26Q267.46-5.44 264.19-2.34L264.19-2.34L264.19-2.34Q260.93 0.77 255.55 0.77L255.55 0.77L255.55 0.77Q252.80 0.77 250.69 0L250.69 0L250.69 0Q248.58-0.77 246.91-2.69L246.91-2.69L246.91 12.03L243.33 13.44ZM263.87-20.42L263.87-20.42Q263.87-25.09 261.41-27.20L261.41-27.20L261.41-27.20Q258.94-29.31 255.55-29.31L255.55-29.31L255.55-29.31Q252.10-29.31 249.60-27.23L249.60-27.23L249.60-27.23Q247.10-25.15 246.91-20.74L246.91-20.74L246.91-10.62L246.91-10.62Q246.91-6.46 249.28-4.48L249.28-4.48L249.28-4.48Q251.65-2.50 255.55-2.50L255.55-2.50L255.55-2.50Q259.07-2.50 261.47-4.58L261.47-4.58L261.47-4.58Q263.87-6.66 263.87-10.62L263.87-10.62L263.87-20.42ZM279.17 0.83L279.17 0.83Q275.58-0.19 273.98-2.43L273.98-2.43L273.98-2.43Q272.38-4.67 272.38-8.45L272.38-8.45L272.38-44.80L275.97-44.80L275.97-32.06L283.65-32.06L282.11-28.67L275.97-28.67L275.97-8.45L275.97-8.45Q275.97-3.33 280.19-1.92L280.19-1.92L279.17 0.83ZM292.29-41.15L292.29-41.15Q291.46-41.15 290.78-41.82L290.78-41.82L290.78-41.82Q290.11-42.50 290.11-43.33L290.11-43.33L290.11-43.33Q290.11-44.16 290.75-44.80L290.75-44.80L290.75-44.80Q291.39-45.44 292.29-45.44L292.29-45.44L292.29-45.44Q293.18-45.44 293.79-44.83L293.79-44.83L293.79-44.83Q294.40-44.22 294.40-43.33L294.40-43.33L294.40-43.33Q294.40-42.43 293.76-41.79L293.76-41.79L293.76-41.79Q293.12-41.15 292.29-41.15L292.29-41.15ZM290.43 0L290.43-32.06L294.02-32.06L294.02 0L290.43 0ZM328.38-11.78L328.38-11.78Q328.38-6.40 325.44-2.88L325.44-2.88L325.44-2.88Q322.50 0.64 316.54 0.64L316.54 0.64L316.54 0.64Q310.59 0.64 307.55-2.91L307.55-2.91L307.55-2.91Q304.51-6.46 304.51-11.78L304.51-11.78L304.51-20.22L304.51-20.22Q304.51-26.30 307.62-29.54L307.62-29.54L307.62-29.54Q310.72-32.77 316.54-32.77L316.54-32.77L316.54-32.77Q322.11-32.77 325.25-29.41L325.25-29.41L325.25-29.41Q328.38-26.05 328.38-20.22L328.38-20.22L328.38-11.78ZM324.80-20.22L324.80-20.22Q324.80-25.02 322.59-27.26L322.59-27.26L322.59-27.26Q320.38-29.50 316.54-29.50L316.54-29.50L316.54-29.50Q312.58-29.50 310.34-27.26L310.34-27.26L310.34-27.26Q308.10-25.02 308.10-20.22L308.10-20.22L308.10-11.14L308.10-11.14Q308.10-7.30 310.37-4.93L310.37-4.93L310.37-4.93Q312.64-2.56 316.54-2.56L316.54-2.56L316.54-2.56Q320.51-2.56 322.66-4.90L322.66-4.90L322.66-4.90Q324.80-7.23 324.80-11.14L324.80-11.14L324.80-20.22ZM354.69 0L354.69-21.95L354.69-21.95Q354.69-25.86 352.42-27.62L352.42-27.62L352.42-27.62Q350.14-29.38 346.56-29.38L346.56-29.38L346.56-29.38Q344.38-29.38 342.14-28.77L342.14-28.77L342.14-28.77Q339.90-28.16 338.18-27.20L338.18-27.20L338.18 0L334.59 0L334.59-32.06L338.18-32.06L337.92-29.89L337.92-29.89Q339.46-31.23 341.82-31.90L341.82-31.90L341.82-31.90Q344.19-32.58 346.75-32.58L346.75-32.58L346.75-32.58Q350.27-32.58 352.77-31.42L352.77-31.42L352.77-31.42Q355.33-30.27 356.77-27.97L356.77-27.97L356.77-27.97Q358.21-25.66 358.21-22.14L358.21-22.14L358.21 0L354.69 0ZM409.54 0L404.42-15.68L389.82-15.68L384.83 0L381.06 0L395.39-44.80L398.78-44.80L413.38 0L409.54 0ZM397.06-39.23L390.85-19.20L403.46-19.20L397.06-39.23ZM422.53 0L422.53-41.54L418.24-41.66L418.24-44.80L426.11-44.80L426.11 0L422.53 0Z" fill="url(#editing-outline-gradient)"></path></g></g><style>text {
  font-size: 64px;
  font-family: Arial Black;
  dominant-baseline: central;
  text-anchor: middle;
}</style></svg>